<?xml version="1.0" encoding="utf-8"?>
<!-- Generator: Adobe Illustrator 22.0.1, SVG Export Plug-In . SVG Version: 6.00 Build 0)  -->
<svg version="1.1" id="Laag_1" xmlns="http://www.w3.org/2000/svg" xmlns:xlink="http://www.w3.org/1999/xlink" x="0px" y="0px"
	 viewBox="0 0 674.7 254.9" style="enable-background:new 0 0 674.7 254.9;" xml:space="preserve">
<style type="text/css">
	.st0{fill:none;}
	.st1{fill:#FCAF17;}
	.st2{font-family:'NeoSansPro-Bold';}
	.st3{font-size:59px;}
	.st4{fill:#B0D235;}
	.st5{fill:#669940;}
	.st6{fill:#00B4CD;}
	.st7{fill:#008791;}
	.st8{fill:#C8892B;}
	.st9{fill:#D80B8C;}
	.st10{fill:#A92176;}
	.st11{fill:#679A45;}
	.st12{font-family:'NeoSansPro-Medium';}
	.st13{font-size:16px;}
	.st14{font-size:21px;}
	.st15{font-size:36px;}
</style>
<rect x="245.3" y="7.9" class="st0" width="491.4" height="159.2"/>
<text transform="matrix(1 0 0 1 245.3047 53.203)" class="st1 st2 st3">OPENDEURDAG</text>
<g>
	<polygon class="st4" points="147.1,248.4 78.1,248.4 41.9,204.6 111.1,204.6 	"/>
	<polygon class="st5" points="111.1,204.6 42.1,204.6 5.9,160.7 75.1,160.7 	"/>
	<polygon class="st6" points="215,248.4 147.1,248.4 111,204.6 179.7,204.7 	"/>
	<polygon class="st7" points="179.7,204.7 110.6,204.6 74.3,160.7 143.5,160.7 	"/>
	<polygon class="st1" points="215,248.4 179.7,204.7 179.3,121.2 216.4,164.1 	"/>
	<polygon class="st8" points="179.7,204.7 143.5,160.7 144.1,79.1 179.3,121.2 	"/>
	<polygon class="st9" points="216.4,164.1 179.3,121.2 178.8,37.7 216,80.6 	"/>
	<polygon class="st10" points="179.3,121.2 144.1,79.1 145.2,-0.3 178.8,37.7 	"/>
</g>
<g>
	<path class="st11" d="M7.4,141.1c-0.3,0-0.5-0.2-0.5-0.5v-1.9c0-0.3,0.2-0.4,0.5-0.4h3.3v-12.1l-3.2,1c-0.1,0-0.2,0-0.3,0
		c-0.2,0-0.3-0.1-0.3-0.3v-2.3c0-0.1,0-0.2,0.2-0.3l4.3-1.4c0.1,0,0.3-0.1,0.6-0.1h1.6c0.3,0,0.5,0.2,0.5,0.5v14.9h3.3
		c0.3,0,0.5,0.2,0.5,0.4v1.9c0,0.3-0.2,0.5-0.5,0.5h-10V141.1z"/>
	<path class="st11" d="M27.4,141.3c-4,0-6.4-2.3-6.4-8.4v-1.8c0-6.1,2.4-8.4,6.4-8.4s6.4,2.3,6.4,8.4v1.8
		C33.8,139,31.4,141.3,27.4,141.3z M30.4,131.1c0-4.4-1.3-5.6-3-5.6s-3,1.2-3,5.6v1.8c0,4.4,1.3,5.6,3,5.6s3-1.2,3-5.6V131.1z"/>
	<path class="st11" d="M50.1,141.1c-0.6,0.1-1.1,0.2-1.7,0.2c-2.8,0-3.9-0.6-3.9-3.9v-7.7l-2.3-0.3c-0.3,0-0.5-0.2-0.5-0.5v-1.1
		c0-0.3,0.2-0.5,0.5-0.5h2.3v-2c0-0.3,0.2-0.4,0.5-0.5l2.3-0.4h0.1c0.2,0,0.4,0.1,0.4,0.4v2.5H50c0.3,0,0.5,0.2,0.5,0.5v1.4
		c0,0.3-0.2,0.5-0.5,0.5h-2.2v7.7c0,1.2,0.1,1.4,1,1.4h1.3c0.3,0,0.5,0.1,0.5,0.4v1.5C50.6,140.9,50.4,141.1,50.1,141.1z"/>
	<path class="st11" d="M58,141.3c-3.8,0-5.9-2.6-5.9-6.1v-2c0-3.5,2-6.1,5.9-6.1c3.8,0,5.9,2.6,5.9,6.1v2
		C63.8,138.7,61.8,141.3,58,141.3z M60.6,133.2c0-2-0.9-3.3-2.6-3.3s-2.6,1.3-2.6,3.3v2c0,2,0.9,3.3,2.6,3.3s2.6-1.3,2.6-3.3V133.2z
		"/>
	<path class="st11" d="M73.2,141.1c-0.6,0.1-1.1,0.2-1.7,0.2c-2.8,0-3.9-0.6-3.9-3.9v-7.7l-2.3-0.3c-0.3,0-0.5-0.2-0.5-0.5v-1.1
		c0-0.3,0.2-0.5,0.5-0.5h2.3v-2c0-0.3,0.2-0.4,0.5-0.5l2.3-0.4h0.1c0.2,0,0.4,0.1,0.4,0.4v2.5h2.2c0.3,0,0.5,0.2,0.5,0.5v1.4
		c0,0.3-0.2,0.5-0.5,0.5h-2.2v7.7c0,1.2,0.1,1.4,1,1.4h1.3c0.3,0,0.5,0.1,0.5,0.4v1.5C73.7,140.9,73.6,141.1,73.2,141.1z"/>
	<path class="st11" d="M83.6,141.1c-0.3,0-0.5-0.2-0.5-0.5v-1.9c0-0.3,0.2-0.4,0.5-0.4h3.3v-12.1l-3.2,1c-0.1,0-0.2,0-0.3,0
		c-0.2,0-0.3-0.1-0.3-0.3v-2.3c0-0.1,0-0.2,0.2-0.3l4.3-1.4c0.1,0,0.3-0.1,0.6-0.1h1.6c0.3,0,0.5,0.2,0.5,0.5v14.9h3.3
		c0.3,0,0.5,0.2,0.5,0.4v1.9c0,0.3-0.2,0.5-0.5,0.5h-10V141.1z"/>
	<path class="st11" d="M109,126.3l-6.6,14.3c-0.2,0.4-0.3,0.5-0.7,0.5h-2.5c-0.2,0-0.3-0.2-0.3-0.4c0-0.1,0-0.1,0-0.2l7-14.7l0,0
		c0,0,0-0.1-0.1-0.1h-7.5c-0.3,0-0.5-0.2-0.5-0.4v-1.9c0-0.3,0.2-0.5,0.5-0.5h10.2c0.5,0,1,0.4,1,1v1.3
		C109.5,125.4,109.3,125.7,109,126.3z"/>
	<path class="st11" d="M123.8,141.1h-2.3c-0.3,0-0.5-0.2-0.5-0.5V140c-1.3,0.8-2.3,1.2-3.8,1.2c-1.2,0-2.3-0.3-3-1
		c-0.9-0.9-1.2-2.4-1.2-4.5v-8c0-0.3,0.2-0.5,0.5-0.5h2.3c0.3,0,0.5,0.2,0.5,0.5v8c0,1.2,0.1,1.9,0.6,2.4c0.3,0.3,0.8,0.4,1.5,0.4
		c0.9,0,2.1-0.6,2.8-1v-9.8c0-0.3,0.2-0.5,0.5-0.5h2.3c0.3,0,0.5,0.2,0.5,0.5v12.8C124.2,140.9,124,141.1,123.8,141.1z"/>
</g>
<g>
	<path d="M22.6,60.7c-5.1,0-9.4-0.8-13.4-1.7c-0.7-0.1-1.3-0.6-1.3-1.3v-4.3c0-0.8,0.6-1.3,1.3-1.3c0.1,0,0.1,0,0.1,0
		c5.5,0.6,9.9,1,13.3,1c5.6,0,7.8-2.5,7.8-7.4v-1.5c0-3.7-1.1-7-6.4-7H11.7c-0.8,0-1.3-0.6-1.3-1.3v-4.4c0-0.8,0.6-1.3,1.3-1.3H24
		c5.3,0,6.4-3.1,6.4-6.8v-1.1c0-3.5-1.4-6.7-7.8-6.7c-4.9,0-7.2,0.3-13.3,1c-0.1,0-0.1,0-0.1,0c-0.7,0-1.3-0.5-1.3-1.3V11
		c0-0.7,0.6-1.2,1.3-1.3c4-1,8.2-1.7,13.4-1.7c10,0,17.5,3.8,17.5,14.3v1.1c0,4.9-2.2,8.3-6,10.3c3.8,2.1,6,6.1,6,10.6v1.5
		C40,56.1,32.5,60.7,22.6,60.7z"/>
	<path d="M67.8,60.7c-11.3,0-18.2-6.5-18.2-23.8v-5.1c0-17.3,6.9-23.9,18.2-23.9S86,14.4,86,31.8v5.1C85.9,54.3,79.1,60.7,67.8,60.7
		z M76.3,31.8c0-12.6-3.7-16-8.5-16s-8.5,3.4-8.5,16v5.1c0,12.6,3.7,15.9,8.5,15.9s8.5-3.3,8.5-15.9V31.8z"/>
</g>
<g>
	<path d="M11.2,114.1c-1,0-2-0.1-3.1-0.3c-0.6-0.1-0.9-0.4-0.9-0.9v-3.1c0-0.5,0.4-0.8,1-0.8h2.1c1.5,0,1.7-0.6,1.7-2.5V78.8
		c0-0.5,0.4-0.9,0.9-0.9h4.3c0.5,0,0.9,0.4,0.9,0.9v27.7C18.2,112.4,15.6,114.1,11.2,114.1z M17.4,74.5h-4.5c-0.5,0-0.9-0.4-0.9-0.9
		v-4.2c0-0.5,0.4-0.9,0.9-0.9h4.5c0.5,0,1,0.4,1,0.9v4.2C18.4,74.1,17.9,74.5,17.4,74.5z"/>
	<path d="M45.4,104.7h-4.3c-0.5,0-0.9-0.4-0.9-0.9v-1.1c-2.5,1.6-4.4,2.4-7.4,2.4c-2.4,0-4.4-0.6-5.8-2c-1.7-1.7-2.4-4.7-2.4-8.6
		V79.1c0-0.5,0.4-1,0.9-1h4.3c0.5,0,0.9,0.5,0.9,1v15.3c0,2.4,0.2,3.7,1.1,4.5c0.7,0.6,1.5,0.9,2.9,0.9c1.7,0,4-1.2,5.3-1.9V79
		c0-0.5,0.4-1,0.9-1h4.3c0.5,0,0.9,0.5,0.9,1v24.7C46.3,104.3,45.9,104.7,45.4,104.7z"/>
	<path d="M73.3,104.7H69c-0.5,0-0.9-0.5-0.9-1V88.3c0-4.1-0.4-5.3-4-5.3c-1.6,0-3.4,0.7-5.3,1.7v19c0,0.5-0.4,1-0.9,1h-4.3
		c-0.5,0-0.9-0.5-0.9-1V79c0-0.5,0.4-0.9,0.9-0.9h4.1c0.5,0,0.9,0.4,0.9,0.9v1c2.7-1.7,4.5-2.3,7.7-2.3c6.8,0,8.2,4.6,8.2,10.6v15.4
		C74.3,104.2,73.9,104.7,73.3,104.7z"/>
	<path d="M86,74.5h-4.6c-0.5,0-1-0.4-1-0.9v-4.2c0-0.5,0.5-0.9,1-0.9H86c0.5,0,0.9,0.4,0.9,0.9v4.2C87,74.1,86.5,74.5,86,74.5z
		 M85.9,104.7h-4.3c-0.5,0-0.9-0.5-0.9-1V79c0-0.5,0.4-0.9,0.9-0.9h4.3c0.5,0,0.9,0.4,0.9,0.9v24.7
		C86.8,104.2,86.4,104.7,85.9,104.7z"/>
</g>
<g>
	<path d="M108.8,90.1l2.4,3.6c2.5,3.8,4.6,5.7,7.9,5.7h0.2V86.1c0-0.4,0.3-0.8,0.7-0.8h3.1c0.4,0,0.8,0.4,0.8,0.8v17.1
		c0,0.4-0.4,0.8-0.8,0.8h-3.9c-4.4,0-8.3-2.8-10.6-6.1l-2.7-4c-2.1-3.1-2.7-3.7-4.9-3.7s-3,1.4-3,4.7c0,2.4,0.3,5.6,0.6,8.1
		c0,0,0,0,0,0.1c0,0.4-0.4,0.7-0.8,0.7h-2.4c-0.4,0-0.6-0.4-0.8-0.8c-0.6-2.1-1-5.5-1-8.1c0-7.1,2.4-9.9,7.4-9.9
		C104.3,85.1,106.6,86.8,108.8,90.1z"/>
	<path d="M124.2,69.3c0,6.5-3.7,10.5-13.8,10.5h-3c-10,0-13.8-4-13.8-10.5s3.8-10.5,13.8-10.5h3C120.5,58.8,124.2,62.7,124.2,69.3z
		 M107.4,64.4c-7.3,0-9.3,2.1-9.3,4.9s2,4.9,9.3,4.9h3c7.3,0,9.2-2.1,9.2-4.9s-1.9-4.9-9.2-4.9H107.4z"/>
	<path d="M123.9,51.4c0,0.4-0.4,0.8-0.8,0.8H120c-0.4,0-0.7-0.4-0.7-0.8V46H99.5l1.6,5.3c0.1,0.2,0.1,0.4,0.1,0.5
		c0,0.3-0.1,0.4-0.5,0.4h-3.8c-0.2,0-0.4-0.1-0.4-0.3l-2.3-7.1c-0.1-0.2-0.2-0.5-0.2-0.9v-2.7c0-0.4,0.3-0.8,0.8-0.8h24.6V35
		c0-0.4,0.3-0.8,0.7-0.8h3.1c0.4,0,0.8,0.4,0.8,0.8v16.4H123.9z"/>
	<path d="M124.2,18.3v0.4c0,5.5-2.6,10.3-9,10.3h-0.4c-2.7,0-5-1.5-6.6-3.7c-1.6,2.5-3.8,3.5-6.3,3.5h-0.2c-6,0-8.2-4.6-8.2-10.2
		v-0.4c0-5.5,2.2-10.2,8.2-10.2h0.2c2.5,0,4.7,1.1,6.3,3.5c1.5-2.2,3.9-3.7,6.6-3.7h0.4C121.6,7.9,124.2,12.8,124.2,18.3z M102,13.3
		c-2.7,0-4.3,1.5-4.3,5v0.4c0,3.5,1.6,5,4.3,5h0.2c2.3,0,4.2-1.2,4.2-4.4v-1.7c0-3.1-1.8-4.4-4.2-4.4H102V13.3z M114.9,13.4
		c-1.9,0-4.4,1.1-4.4,4.3v1.7c0,3.2,2.5,4.3,4.4,4.3h0.4c2.7,0,4.8-1.6,4.8-4.9v-0.4c0-3.3-2.1-4.9-4.8-4.9L114.9,13.4L114.9,13.4z"
		/>
</g>
<rect x="247.9" y="213.5" class="st0" width="254.9" height="42.4"/>
<text transform="matrix(1 0 0 1 247.9478 225.7212)" class="st9 st12 st13">Mediacampus Mariakerke</text>
<text transform="matrix(1 0 0 1 247.9478 248.6212)" class="st5 st12 st14">gdm.gent/opendeurdag</text>
<rect x="246.1" y="78.7" class="st0" width="280.6" height="93.7"/>
<text transform="matrix(1 0 0 1 246.0848 106.0752)" class="st12 st15">Grafische en </text>
<text transform="matrix(1 0 0 1 246.0848 139.9752)" class="st12 st15">Digitale Media</text>
<g>
	<g>
		<path class="st1" d="M589,248.8c-1.1,0-2.3,0-3.4,0c-3.4,0-6.6-2.6-7.2-6c-0.8-4.1,1.6-7.9,5.7-8.8c4-1,8.3,1.8,9,5.8
			c0.1,0.5,0.2,1.1,0.2,1.6c0,2.3,0,4.6,0,6.9c0,0.4-0.1,0.5-0.5,0.5C591.5,248.8,590.3,248.8,589,248.8z M586.7,243.8
			c0.4,0,0.8,0,1.2,0c0.3,0,0.4-0.1,0.3-0.3c0-0.7,0-1.4,0-2.1c0-1.4-1.1-2.5-2.5-2.5c-1.3,0-2.5,1.1-2.5,2.5s1.1,2.5,2.5,2.5
			C586,243.8,586.3,243.8,586.7,243.8z"/>
		<path class="st4" d="M598.1,236.4c0-0.7,0-1.4,0-2.1c0-0.2,0.1-0.3,0.3-0.3c1.5,0,2.9,0,4.4,0c0.2,0,0.3,0.1,0.3,0.3
			c0,1.5,0,2.9,0,4.4c0,0.2-0.1,0.3-0.3,0.3c-1.5,0-3,0-4.5,0c-0.2,0-0.3-0.1-0.3-0.3C598.1,237.9,598.1,237.2,598.1,236.4z"/>
		<path class="st4" d="M600.6,248.8c-0.7,0-1.4,0-2.1,0c-0.3,0-0.3-0.1-0.3-0.3c0-1.4,0-2.9,0-4.3c0-0.3,0-0.4,0.3-0.4
			c1.4,0,2.9,0,4.3,0c0.3,0,0.3,0.1,0.3,0.4c0,1.4,0,2.9,0,4.3c0,0.3-0.1,0.3-0.4,0.3C602.1,248.8,601.3,248.8,600.6,248.8z"/>
	</g>
</g>
<g>
	<path class="st6" d="M633.8,241.4c0,0.7,0,1.3,0,2c0,0.3-0.1,0.4-0.4,0.5c-0.6,0.1-1.2,0.2-1.8,0.1c-0.6-0.2-1-0.6-1-1.3
		c0-0.3,0-0.6,0-0.9c0-1,0.5-1.6,1.5-1.6c0.5,0,0.6-0.2,0.5-0.6c0-0.4-0.1-0.7,0.5-0.6c0.6,0,0.6,0,0.6,0.6
		C633.8,240.1,633.8,240.7,633.8,241.4z M632.7,242.1c0-0.2,0-0.3,0-0.5s0.1-0.5-0.2-0.5s-0.7,0-0.8,0.4s-0.1,0.8,0,1.2
		c0.1,0.4,0.4,0.4,0.7,0.4c0.4,0,0.2-0.3,0.2-0.5C632.7,242.4,632.7,242.2,632.7,242.1z"/>
	<path class="st6" d="M636.6,242.3c-0.2,0-0.4,0-0.6,0c-0.1,0-0.4-0.1-0.4,0.1s0.1,0.4,0.3,0.5c0.1,0,0.3,0.1,0.4,0.1
		c0.3,0,0.6,0,0.8,0s0.5-0.1,0.5,0.3c0,0.3,0,0.5-0.4,0.6s-0.8,0.1-1.2,0.1c-0.2,0-0.5-0.1-0.7-0.1c-1-0.4-1-1.9-0.7-2.7
		c0.3-0.8,1.3-1.1,2.2-0.8c0.6,0.3,1.1,1.2,0.9,1.9c0,0.2-0.1,0.2-0.3,0.2C637.2,242.3,636.9,242.3,636.6,242.3z M636.1,241.7
		c0.1-0.2,0.5,0.2,0.5-0.3c0-0.3-0.2-0.5-0.5-0.5c-0.4,0-0.6,0.2-0.5,0.5C635.6,241.8,636,241.6,636.1,241.7z"/>
	<path class="st6" d="M626.9,242.4c-0.2,0-0.5,0-0.7,0c-0.1,0-0.3-0.1-0.3,0.1c-0.1,0.1,0,0.3,0.1,0.4c0.1,0.2,0.3,0.2,0.5,0.2
		c0.3,0,0.7,0,1,0c0.2,0,0.4-0.1,0.4,0.2c0,0.2,0.1,0.5-0.2,0.6c-0.6,0.1-1.3,0.3-1.9,0c-0.6-0.2-0.9-0.6-0.9-1.2c0-0.3,0-0.6,0-0.9
		c0-1,0.7-1.6,1.6-1.6c0.9,0,1.5,0.6,1.5,1.6c0,0.8,0.1,0.6-0.7,0.7C627.2,242.4,627.1,242.4,626.9,242.4z M626.4,241.8
		c0.2-0.1,0.5,0.2,0.5-0.2c0-0.3-0.2-0.5-0.6-0.5c-0.3,0-0.5,0.2-0.5,0.5C625.9,242,626.3,241.6,626.4,241.8z"/>
	<path class="st6" d="M619.4,242.5c-0.2,0-0.4,0-0.6,0c-0.1,0-0.4-0.1-0.4,0.1s0.1,0.5,0.4,0.5c0.2,0,0.4,0,0.6,0c0.2,0,0.4,0,0.6,0
		c0.2,0,0.4-0.1,0.4,0.2c0,0.2,0.1,0.5-0.2,0.6c-0.6,0.1-1.2,0.3-1.8,0.1c-0.6-0.2-1-0.7-1-1.3c0-0.5-0.1-0.9,0.1-1.4
		c0.2-0.8,0.9-1.2,1.7-1.1s1.3,0.6,1.4,1.4l0,0c0,0.8,0,0.8-0.7,0.8C619.6,242.5,619.5,242.5,619.4,242.5z M618.9,241.8
		c0.2-0.1,0.5,0.2,0.5-0.2c0-0.3-0.2-0.5-0.5-0.5s-0.6,0.2-0.6,0.5C618.4,242,618.7,241.7,618.9,241.8z"/>
	<path class="st6" d="M611,242.6c0,0.4,0,0.8,0,1.2c0,0.2-0.1,0.3-0.3,0.3c-0.5,0-1,0-1.4,0.1c-0.7,0.1-1.2-0.3-1.2-1
		s0.3-1.1,1.1-1.2c0.2,0,0.3,0,0.5,0s0.4,0,0.4-0.2s-0.1-0.4-0.4-0.4c-0.3,0-0.7,0-1,0c-0.2,0-0.4,0-0.3-0.2c0-0.2-0.1-0.5,0.2-0.6
		c0.5-0.1,1.1-0.2,1.7,0c0.5,0.2,0.8,0.5,0.8,1C611,241.8,611,242.2,611,242.6z M609.6,242.5c-0.3,0-0.5,0.1-0.5,0.4
		c0,0.2,0.1,0.4,0.4,0.3c0.3,0,0.5,0,0.5-0.4C609.9,242.6,609.9,242.5,609.6,242.5z"/>
	<path class="st6" d="M647.7,240.2c0.2,0,0.5,0,0.7,0c0.3,0,0.4,0.2,0.3,0.4c-0.1,0.2-0.1,0.3-0.1,0.5c0.2,0.8-0.2,1.3-1,1.4
		c-0.3,0-0.6,0.1-0.9,0c-0.1,0-0.3,0-0.3,0.1s0.1,0.2,0.2,0.2c0.5,0.1,1,0.2,1.4,0.4c0.4,0.1,0.7,0.4,0.7,0.9s-0.3,0.8-0.8,0.9
		c-0.4,0.1-0.9,0.1-1.3,0c-0.8-0.2-1.1-0.8-0.7-1.5c0.1-0.2,0.2-0.3,0-0.5c-0.1-0.1-0.1-0.2-0.1-0.3c0.2-0.4,0-0.8,0-1.2
		c0-0.7,0.4-1.2,1.2-1.2C647.2,240.2,647.5,240.2,647.7,240.2z M647.2,240.7c-0.6,0-0.9,0.2-0.8,0.7c0,0.4,0.3,0.6,0.9,0.6
		c0.6,0,0.8-0.2,0.8-0.7C648.1,240.9,647.8,240.7,647.2,240.7z M647.4,244.5c0.2-0.1,0.7,0,0.7-0.5c0-0.7-0.7-0.5-1.1-0.7
		c-0.3-0.1-0.5,0-0.6,0.3C646.2,244.2,646.6,244.5,647.4,244.5z"/>
	<path class="st6" d="M622.7,243c0.1-0.7,0.3-1.4,0.4-2.1c0.1-0.6,0.4-0.8,1-0.6c0.2,0,0.2,0.2,0.2,0.3c-0.3,1-0.5,1.9-0.8,2.9
		c-0.1,0.5-0.5,0.6-0.9,0.6s-0.7-0.2-0.8-0.6c-0.3-0.9-0.5-1.9-0.8-2.8c-0.1-0.2,0-0.3,0.3-0.3c0.8,0,0.8-0.1,0.9,0.7
		c0.1,0.7,0.3,1.3,0.5,2C622.6,243,622.7,243,622.7,243z"/>
	<path class="st6" d="M615,242.3c0-0.2,0-0.5,0-0.7c0-0.3,0-0.6-0.4-0.5c-0.3,0-0.2-0.2-0.2-0.4c0-0.2,0.1-0.3,0.3-0.3
		c0.3,0,0.4-0.1,0.4-0.4c0-0.5,0.6-0.3,0.9-0.4c0.3-0.1,0.2,0.2,0.2,0.4c0,0.2,0.1,0.4,0.3,0.3c0.3,0,0.4,0.2,0.4,0.4
		c0,0.3-0.1,0.4-0.4,0.4c-0.3,0-0.3,0.1-0.3,0.3c0,0.4,0,0.7,0,1.1c0,0.3-0.1,0.7,0.5,0.7c0.2,0,0.2,0.2,0.2,0.4
		c0,0.2-0.1,0.3-0.3,0.4c-0.9,0.2-1.4-0.2-1.5-1.1C615,242.7,615,242.5,615,242.3z"/>
	<path class="st6" d="M658.7,241.2c0-0.7,0-1.4,0-2c0-0.2,0-0.4,0.3-0.4s0.3,0.2,0.3,0.4c0,0.3-0.1,0.7,0.1,0.9
		c0.2,0.2,0.5-0.1,0.8,0c0.8,0,1.2,0.4,1.3,1.2c0,0.7,0,1.3,0,2c0,0.3-0.1,0.4-0.3,0.4c-0.3,0-0.3-0.2-0.3-0.4c0-0.6,0-1.3,0-1.9
		c0-0.3,0-0.6-0.3-0.7c-0.4-0.1-0.7-0.1-1.1,0.1c-0.1,0.1-0.1,0.2-0.1,0.3c0,0.7,0,1.4,0,2.1c0,0.2,0,0.5-0.3,0.4
		c-0.3,0-0.3-0.2-0.3-0.5C658.7,242.5,658.7,241.9,658.7,241.2z"/>
	<path class="st6" d="M638.8,241.4c0-0.7,0-1.3,0-2c0-0.2,0-0.4,0.3-0.4s0.3,0.2,0.3,0.4c0,0.3-0.1,0.7,0.1,0.9c0.2,0.2,0.5,0,0.8,0
		c0.8,0,1.2,0.3,1.3,1.2c0,0.7,0,1.4,0,2.1c0,0.2-0.1,0.3-0.3,0.3s-0.3-0.1-0.3-0.3c0-0.7,0-1.3,0-2c0-0.3-0.1-0.6-0.3-0.7
		c-0.4-0.1-0.7-0.1-1.1,0.1c-0.1,0.1-0.1,0.2-0.1,0.3c0,0.7,0,1.5,0,2.2c0,0.3-0.1,0.4-0.3,0.4s-0.3-0.1-0.3-0.4
		C638.9,242.8,638.8,242.1,638.8,241.4z"/>
	<path class="st6" d="M649.3,241.9c0-0.2,0-0.5,0.1-0.7c0.1-0.7,0.7-1.1,1.6-1c0.7,0,1.1,0.5,1.2,1.2c0,0.1,0,0.2,0,0.2
		c0.1,0.6,0,0.6-0.5,0.6s-0.9,0-1.4,0c-0.3,0-0.3,0.1-0.3,0.4c0.1,0.5,0.3,0.7,0.8,0.7c0.3,0,0.6,0,1-0.1c0.2,0,0.3,0,0.3,0.2
		s-0.1,0.3-0.2,0.3c-0.1,0-0.3,0-0.4,0.1C649.9,243.9,649.3,243.4,649.3,241.9z M650.7,241.6L650.7,241.6c0.2,0,0.4,0,0.6,0
		c0.1,0,0.3,0,0.2-0.2c-0.1-0.3-0.1-0.6-0.5-0.7s-0.9,0-1,0.3c-0.3,0.5-0.2,0.6,0.4,0.6C650.5,241.6,650.6,241.6,650.7,241.6z"/>
	<path class="st6" d="M628.8,241.4c0-0.7,0-1.4,0-2.1c0-0.4,0.3-0.4,0.5-0.4c0.3,0,0.6-0.1,0.6,0.4c0,1.4,0,2.8,0,4.2
		c0,0.5-0.3,0.3-0.6,0.3s-0.5,0.1-0.5-0.4C628.8,242.8,628.8,242.1,628.8,241.4z"/>
	<path class="st6" d="M642.3,242c0-0.1,0-0.3,0-0.4c0-0.8,0.5-1.3,1.2-1.4c0.9-0.1,1.5,0.3,1.7,1.1c0.1,0.5,0.1,1,0,1.4
		c-0.2,0.8-0.7,1.1-1.5,1.1c-0.8-0.1-1.3-0.6-1.3-1.3C642.3,242.3,642.3,242.2,642.3,242z M642.9,242L642.9,242c0,0.2,0,0.3,0,0.5
		c0,0.5,0.3,0.8,0.8,0.8s0.8-0.3,0.8-0.8c0-0.4,0-0.7,0-1.1c0-0.5-0.3-0.7-0.8-0.7s-0.7,0.2-0.8,0.7
		C642.9,241.6,642.9,241.8,642.9,242z"/>
	<path class="st6" d="M665,241.8c0,1.1-0.3,1.6-1.1,1.8c-0.9,0.2-1.6-0.3-1.8-1.2c-0.1-0.4-0.1-0.8,0-1.2c0.1-0.7,0.6-1.2,1.3-1.2
		c0.9,0,1.4,0.3,1.5,1.1C664.9,241.4,664.9,241.6,665,241.8z M664.3,241.8c0-0.2,0-0.5-0.1-0.8s-0.4-0.4-0.7-0.4s-0.6,0.1-0.7,0.4
		c-0.2,0.5-0.2,1.1,0,1.6c0.1,0.3,0.4,0.5,0.7,0.5c0.4,0,0.6-0.2,0.8-0.5C664.4,242.3,664.3,242.1,664.3,241.8z"/>
	<path class="st6" d="M665.5,241.8c0-0.2,0-0.3,0-0.5c0-0.8,0.5-1.3,1.2-1.3c0.9,0,1.4,0.3,1.6,1.2c0.1,0.4,0.1,0.8,0,1.2
		c-0.1,0.8-0.7,1.3-1.5,1.2c-0.8,0-1.3-0.5-1.3-1.4C665.5,242.1,665.5,242,665.5,241.8L665.5,241.8z M667.8,241.8c0-0.2,0-0.3,0-0.5
		c-0.1-0.5-0.3-0.7-0.8-0.7s-0.7,0.1-0.9,0.7c-0.1,0.4-0.1,0.9,0,1.3s0.3,0.5,0.7,0.6c0.4,0,0.7-0.1,0.8-0.5
		C667.8,242.3,667.8,242,667.8,241.8z"/>
	<path class="st6" d="M611.8,242.2c0-0.5,0-0.9,0-1.4c0-0.3,0.1-0.4,0.4-0.4c0.4,0,0.9,0.2,1.3-0.1c0.2-0.1,0.3,0,0.3,0.2
		s0.2,0.6-0.2,0.7c-0.7,0.2-0.7,0.2-0.7,0.9c0,0.5,0,0.9,0,1.4c0,0.4-0.1,0.5-0.5,0.5s-0.6,0-0.6-0.5
		C611.9,243.1,611.8,242.6,611.8,242.2z"/>
	<path class="st6" d="M653.5,243.2c0.2,0,0.4,0,0.5,0c0.2,0,0.4,0,0.5-0.3s-0.1-0.4-0.3-0.6c-0.3-0.2-0.6-0.3-0.8-0.5
		c-0.2-0.1-0.4-0.2-0.5-0.4c-0.3-0.5-0.1-1.2,0.5-1.3c0.5-0.1,0.9-0.1,1.4,0c0.2,0,0.3,0.1,0.3,0.3c0,0.2-0.2,0.2-0.3,0.2
		c-0.3,0-0.6,0-0.9,0c-0.2,0-0.4,0-0.4,0.3c0,0.2,0.1,0.3,0.3,0.4c0.3,0.2,0.6,0.3,0.9,0.5c0.3,0.2,0.6,0.4,0.6,0.8
		c0,0.6-0.2,0.8-0.7,1c-0.5,0.1-0.9,0.1-1.4,0c-0.2,0-0.3-0.1-0.3-0.3c0-0.2,0.2-0.2,0.3-0.2C653.3,243.2,653.4,243.2,653.5,243.2z"
		/>
	<path class="st6" d="M655.7,241.9c0-0.4,0-0.6,0.1-0.8c0.2-0.8,1.3-1.4,2.1-1c0.2,0.1,0.2,0.2,0.1,0.4c0,0.2-0.1,0.2-0.2,0.2
		c-0.2,0-0.4,0-0.6,0c-0.6,0-0.8,0.2-0.9,0.7c0,0.3,0,0.7,0,1c0.1,0.6,0.3,0.8,0.9,0.8c0.1,0,0.3,0,0.4,0c0.1,0,0.3-0.1,0.3,0.2
		c0,0.2-0.1,0.3-0.3,0.3C656.4,243.9,655.7,243.3,655.7,241.9z"/>
	<path class="st6" d="M669,241.1c0-0.7,0-1.4,0-2c0-0.2,0-0.4,0.3-0.4s0.3,0.2,0.3,0.4c0,1.4,0,2.7,0,4.1c0,0.3-0.1,0.4-0.3,0.4
		c-0.3,0-0.3-0.2-0.3-0.4C669,242.5,669,241.8,669,241.1z"/>
</g>
</svg>
