<?xml version="1.0" encoding="utf-8"?>
<!-- Generator: Adobe Illustrator 22.1.0, SVG Export Plug-In . SVG Version: 6.00 Build 0)  -->
<svg version="1.1" id="Laag_1" xmlns="http://www.w3.org/2000/svg" xmlns:xlink="http://www.w3.org/1999/xlink" x="0px" y="0px"
	 viewBox="0 0 815.8 243" style="enable-background:new 0 0 815.8 243;" xml:space="preserve">
<style type="text/css">
	.st0{fill:none;}
	.st1{fill:#FCAF17;}
	.st2{font-family:'NeoSansPro-Bold';}
	.st3{font-size:72px;}
	.st4{fill:#00ABC7;}
	.st5{font-size:55px;}
	.st6{fill:#B0D235;}
	.st7{fill:#669940;}
	.st8{fill:#00B4CD;}
	.st9{fill:#008791;}
	.st10{fill:#C8892B;}
	.st11{fill:#D80B8C;}
	.st12{fill:#A92176;}
</style>
<rect x="94.3" y="107.2" class="st0" width="741" height="163.9"/>
<text transform="matrix(1 0 0 1 94.3269 162.3927)"><tspan x="0" y="0" class="st1 st2 st3">OPENDEURDAG</tspan><tspan x="0" y="64.6" class="st4 st2 st5">Grafische en Digitale Media</tspan></text>
<g>
	<polygon class="st6" points="69.7,4.6 132.6,4.6 165.6,44.6 102.5,44.6 	"/>
	<polygon class="st7" points="102.5,44.5 165.4,44.5 198.4,84.6 135.4,84.6 	"/>
	<polygon class="st8" points="7.8,4.6 69.7,4.6 102.5,44.6 40,44.4 	"/>
	<polygon class="st9" points="40,44.4 103,44.6 136,84.6 72.9,84.6 	"/>
	<polygon class="st1" points="7.8,4.6 40,44.4 40.4,120.6 6.5,81.5 	"/>
	<polygon class="st10" points="40,44.4 72.9,84.6 72.4,159 40.4,120.6 	"/>
	<polygon class="st11" points="6.5,81.5 40.4,120.6 40.8,196.7 6.9,157.6 	"/>
	<polygon class="st12" points="40.4,120.6 72.4,159 71.4,231.4 40.8,196.7 	"/>
</g>
</svg>
